<?xml version="1.0" encoding="UTF-8" standalone="no"?>
<!DOCTYPE svg PUBLIC "-//W3C//DTD SVG 1.1//EN"
 "http://www.w3.org/Graphics/SVG/1.1/DTD/svg11.dtd">
<!-- Generated by graphviz version 8.0.5 (0)
 -->
<!-- Pages: 1 -->
<svg width="164pt" height="303pt"
 viewBox="0.00 0.00 164.25 302.50" xmlns="http://www.w3.org/2000/svg" xmlns:xlink="http://www.w3.org/1999/xlink">
<g id="graph0" class="graph" transform="scale(1 1) rotate(0) translate(4 298.5)">
<polygon fill="white" stroke="none" points="-4,4 -4,-298.5 160.25,-298.5 160.25,4 -4,4"/>
<!-- entry -->
<g id="node1" class="node">
<title>entry</title>
<polygon fill="none" stroke="black" points="78.12,-294.5 35.9,-276.5 78.12,-258.5 120.35,-276.5 78.12,-294.5"/>
<polyline fill="none" stroke="black" points="46.94,-281.21 46.94,-271.79"/>
<polyline fill="none" stroke="black" points="67.09,-263.21 89.16,-263.21"/>
<polyline fill="none" stroke="black" points="109.31,-271.79 109.31,-281.21"/>
<polyline fill="none" stroke="black" points="89.16,-289.79 67.09,-289.79"/>
<text text-anchor="middle" x="78.12" y="-271.45" font-family="Times,serif" font-size="14.00">main</text>
</g>
<!-- n0 -->
<g id="node2" class="node">
<title>n0</title>
<polygon fill="none" stroke="black" points="156.25,-222.5 0,-222.5 0,0 156.25,0 156.25,-222.5"/>
<text text-anchor="middle" x="78.12" y="-205.2" font-family="Times,serif" font-size="14.00">r00:04 &lt;&#45; 0</text>
<text text-anchor="middle" x="78.12" y="-188.7" font-family="Times,serif" font-size="14.00">&#39;a&#39; &lt;&#45; r00:04</text>
<text text-anchor="middle" x="78.12" y="-172.2" font-family="Times,serif" font-size="14.00">r01:04 &lt;&#45; 5</text>
<text text-anchor="middle" x="78.12" y="-155.7" font-family="Times,serif" font-size="14.00">&#39;b&#39; &lt;&#45; r01:04</text>
<text text-anchor="middle" x="78.12" y="-139.2" font-family="Times,serif" font-size="14.00">r02:08 &lt;&#45; write_num</text>
<text text-anchor="middle" x="78.12" y="-122.7" font-family="Times,serif" font-size="14.00">r03:04 &lt;&#45; &#39;a&#39;</text>
<text text-anchor="middle" x="78.12" y="-106.2" font-family="Times,serif" font-size="14.00">r04:04 &lt;&#45; &#39;b&#39;</text>
<text text-anchor="middle" x="78.12" y="-89.7" font-family="Times,serif" font-size="14.00">r05:04 &lt;&#45; r03:04 * r04:04</text>
<text text-anchor="middle" x="78.12" y="-73.2" font-family="Times,serif" font-size="14.00">p00:04 &lt;&#45; r05:04</text>
<text text-anchor="middle" x="78.12" y="-56.7" font-family="Times,serif" font-size="14.00">r06:00 &lt;&#45; r02:08(1)</text>
<text text-anchor="middle" x="78.12" y="-40.2" font-family="Times,serif" font-size="14.00">&#39;v&#39; &lt;&#45; r06:00</text>
<text text-anchor="middle" x="78.12" y="-23.7" font-family="Times,serif" font-size="14.00">r07:04 &lt;&#45; &#39;a&#39;</text>
<text text-anchor="middle" x="78.12" y="-7.2" font-family="Times,serif" font-size="14.00">return r07:04</text>
</g>
<!-- entry&#45;&gt;n0 -->
<g id="edge1" class="edge">
<title>entry&#45;&gt;n0</title>
<path fill="none" stroke="black" d="M78.12,-258.03C78.12,-251.28 78.12,-242.94 78.12,-233.7"/>
<polygon fill="black" stroke="black" points="81.63,-233.93 78.12,-223.93 74.63,-233.93 81.63,-233.93"/>
</g>
</g>
</svg>
