<?xml version="1.0" encoding="UTF-8" standalone="no"?>
<!DOCTYPE svg PUBLIC "-//W3C//DTD SVG 1.1//EN"
 "http://www.w3.org/Graphics/SVG/1.1/DTD/svg11.dtd">
<!-- Generated by graphviz version 8.0.5 (0)
 -->
<!-- Pages: 1 -->
<svg width="347pt" height="1117pt"
 viewBox="0.00 0.00 346.62 1116.75" xmlns="http://www.w3.org/2000/svg" xmlns:xlink="http://www.w3.org/1999/xlink">
<g id="graph0" class="graph" transform="scale(1 1) rotate(0) translate(4 1112.75)">
<polygon fill="white" stroke="none" points="-4,4 -4,-1112.75 342.62,-1112.75 342.62,4 -4,4"/>
<!-- entry -->
<g id="node1" class="node">
<title>entry</title>
<polygon fill="none" stroke="black" points="206.75,-1108.75 164.53,-1090.75 206.75,-1072.75 248.97,-1090.75 206.75,-1108.75"/>
<polyline fill="none" stroke="black" points="175.57,-1095.46 175.57,-1086.04"/>
<polyline fill="none" stroke="black" points="195.71,-1077.46 217.79,-1077.46"/>
<polyline fill="none" stroke="black" points="237.93,-1086.04 237.93,-1095.46"/>
<polyline fill="none" stroke="black" points="217.79,-1104.04 195.71,-1104.04"/>
<text text-anchor="middle" x="206.75" y="-1085.7" font-family="Times,serif" font-size="14.00">main</text>
</g>
<!-- n0 -->
<g id="node3" class="node">
<title>n0</title>
<polygon fill="none" stroke="black" points="287.88,-1035.75 125.62,-1035.75 125.62,-780.25 287.88,-780.25 287.88,-1035.75"/>
<text text-anchor="middle" x="206.75" y="-1018.45" font-family="Times,serif" font-size="14.00">r00:04 &lt;&#45; 0</text>
<text text-anchor="middle" x="206.75" y="-1001.95" font-family="Times,serif" font-size="14.00">local[a] &lt;&#45; r00:04</text>
<text text-anchor="middle" x="206.75" y="-985.45" font-family="Times,serif" font-size="14.00">r01:04 &lt;&#45; 5</text>
<text text-anchor="middle" x="206.75" y="-968.95" font-family="Times,serif" font-size="14.00">local[b] &lt;&#45; r01:04</text>
<text text-anchor="middle" x="206.75" y="-952.45" font-family="Times,serif" font-size="14.00">r02:08 &lt;&#45; write_num</text>
<text text-anchor="middle" x="206.75" y="-935.95" font-family="Times,serif" font-size="14.00">r03:04 &lt;&#45; local[a]</text>
<text text-anchor="middle" x="206.75" y="-919.45" font-family="Times,serif" font-size="14.00">r04:04 &lt;&#45; local[b]</text>
<text text-anchor="middle" x="206.75" y="-902.95" font-family="Times,serif" font-size="14.00">r05:04 &lt;&#45; r03:04 * r04:04</text>
<text text-anchor="middle" x="206.75" y="-886.45" font-family="Times,serif" font-size="14.00">p00:04 &lt;&#45; r05:04</text>
<text text-anchor="middle" x="206.75" y="-869.95" font-family="Times,serif" font-size="14.00">r06:00 &lt;&#45; r02:08(1)</text>
<text text-anchor="middle" x="206.75" y="-853.45" font-family="Times,serif" font-size="14.00">local[v] &lt;&#45; r06:00</text>
<text text-anchor="middle" x="206.75" y="-836.95" font-family="Times,serif" font-size="14.00">r07:04 &lt;&#45; local[a]</text>
<text text-anchor="middle" x="206.75" y="-820.45" font-family="Times,serif" font-size="14.00">r08:04 &lt;&#45; 6</text>
<text text-anchor="middle" x="206.75" y="-803.95" font-family="Times,serif" font-size="14.00">r09:01 &lt;&#45; r07:04 != r08:04</text>
<text text-anchor="middle" x="206.75" y="-787.45" font-family="Times,serif" font-size="14.00">br r09:01?</text>
</g>
<!-- entry&#45;&gt;n0 -->
<g id="edge1" class="edge">
<title>entry&#45;&gt;n0</title>
<path fill="none" stroke="black" d="M206.75,-1072.42C206.75,-1065.48 206.75,-1056.81 206.75,-1047.13"/>
<polygon fill="black" stroke="black" points="210.25,-1047.24 206.75,-1037.24 203.25,-1047.24 210.25,-1047.24"/>
</g>
<!-- return -->
<g id="node2" class="node">
<title>return</title>
<polygon fill="none" stroke="black" points="140.39,-10.54 140.39,-25.46 119.51,-36 89.99,-36 69.11,-25.46 69.11,-10.54 89.99,0 119.51,0 140.39,-10.54"/>
<text text-anchor="middle" x="104.75" y="-12.95" font-family="Times,serif" font-size="14.00">return</text>
</g>
<!-- n2 -->
<g id="node4" class="node">
<title>n2</title>
<polygon fill="none" stroke="black" points="204.75,-727.75 104.75,-727.75 104.75,-686.75 204.75,-686.75 204.75,-727.75"/>
<text text-anchor="middle" x="154.75" y="-710.45" font-family="Times,serif" font-size="14.00">r15:01 &lt;&#45; False</text>
<text text-anchor="middle" x="154.75" y="-693.95" font-family="Times,serif" font-size="14.00">br r15:01?</text>
</g>
<!-- n0&#45;&gt;n2 -->
<g id="edge10" class="edge">
<title>n0&#45;&gt;n2</title>
<path fill="none" stroke="black" d="M173.52,-780C169.51,-764.67 165.75,-750.29 162.66,-738.48"/>
<polygon fill="black" stroke="black" points="165.84,-737.8 159.92,-729.01 159.07,-739.57 165.84,-737.8"/>
<text text-anchor="middle" x="181.5" y="-748.95" font-family="Times,serif" font-size="14.00">false</text>
</g>
<!-- n3 -->
<g id="node10" class="node">
<title>n3</title>
<polygon fill="none" stroke="black" points="338.62,-668.75 180.88,-668.75 180.88,-545.25 338.62,-545.25 338.62,-668.75"/>
<text text-anchor="middle" x="259.75" y="-651.45" font-family="Times,serif" font-size="14.00">r10:04 &lt;&#45; local[a]</text>
<text text-anchor="middle" x="259.75" y="-634.95" font-family="Times,serif" font-size="14.00">r11:04 &lt;&#45; local[b]</text>
<text text-anchor="middle" x="259.75" y="-618.45" font-family="Times,serif" font-size="14.00">r12:04 &lt;&#45; 2</text>
<text text-anchor="middle" x="259.75" y="-601.95" font-family="Times,serif" font-size="14.00">r13:04 &lt;&#45; r11:04 * r12:04</text>
<text text-anchor="middle" x="259.75" y="-585.45" font-family="Times,serif" font-size="14.00">r14:04 &lt;&#45; r10:04 + r13:04</text>
<text text-anchor="middle" x="259.75" y="-568.95" font-family="Times,serif" font-size="14.00">local[a] &lt;&#45; r14:04</text>
<text text-anchor="middle" x="259.75" y="-552.45" font-family="Times,serif" font-size="14.00">br</text>
</g>
<!-- n0&#45;&gt;n3 -->
<g id="edge12" class="edge">
<title>n0&#45;&gt;n3</title>
<path fill="none" stroke="black" d="M229.3,-779.76C235.35,-745.65 241.68,-709.95 246.99,-679.99"/>
<polygon fill="black" stroke="black" points="250.6,-680.68 248.9,-670.23 243.71,-679.46 250.6,-680.68"/>
<text text-anchor="middle" x="245.25" y="-748.95" font-family="Times,serif" font-size="14.00">true</text>
</g>
<!-- n4 -->
<g id="node5" class="node">
<title>n4</title>
<polygon fill="none" stroke="black" points="126.88,-527.25 30.62,-527.25 30.62,-486.25 126.88,-486.25 126.88,-527.25"/>
<text text-anchor="middle" x="78.75" y="-509.95" font-family="Times,serif" font-size="14.00">r17:01 &lt;&#45; True</text>
<text text-anchor="middle" x="78.75" y="-493.45" font-family="Times,serif" font-size="14.00">br r17:01?</text>
</g>
<!-- n2&#45;&gt;n4 -->
<g id="edge7" class="edge">
<title>n2&#45;&gt;n4</title>
<path fill="none" stroke="black" d="M122.91,-686.46C116.89,-681.37 111.24,-675.42 107.25,-668.75 83.04,-628.26 78.25,-572.48 77.87,-538.33"/>
<polygon fill="black" stroke="black" points="81.37,-538.64 77.89,-528.63 74.37,-538.63 81.37,-538.64"/>
<text text-anchor="middle" x="120.5" y="-601.95" font-family="Times,serif" font-size="14.00">false</text>
</g>
<!-- n5 -->
<g id="node9" class="node">
<title>n5</title>
<polygon fill="none" stroke="black" points="236.12,-468.25 123.38,-468.25 123.38,-410.75 236.12,-410.75 236.12,-468.25"/>
<text text-anchor="middle" x="179.75" y="-450.95" font-family="Times,serif" font-size="14.00">r16:04 &lt;&#45; 4</text>
<text text-anchor="middle" x="179.75" y="-434.45" font-family="Times,serif" font-size="14.00">local[a] &lt;&#45; r16:04</text>
<text text-anchor="middle" x="179.75" y="-417.95" font-family="Times,serif" font-size="14.00">br</text>
</g>
<!-- n2&#45;&gt;n5 -->
<g id="edge9" class="edge">
<title>n2&#45;&gt;n5</title>
<path fill="none" stroke="black" d="M152.24,-686.43C151.62,-680.73 151.06,-674.5 150.75,-668.75 147.83,-613.94 143.36,-599.64 150.75,-545.25 153.79,-522.85 160.34,-498.47 166.44,-478.87"/>
<polygon fill="black" stroke="black" points="170.04,-480.11 169.77,-469.52 163.38,-477.97 170.04,-480.11"/>
<text text-anchor="middle" x="161.25" y="-601.95" font-family="Times,serif" font-size="14.00">true</text>
</g>
<!-- n6 -->
<g id="node6" class="node">
<title>n6</title>
<polygon fill="none" stroke="black" points="179.5,-392.75 66,-392.75 66,-335.25 179.5,-335.25 179.5,-392.75"/>
<text text-anchor="middle" x="122.75" y="-375.45" font-family="Times,serif" font-size="14.00">r20:04 &lt;&#45; 420</text>
<text text-anchor="middle" x="122.75" y="-358.95" font-family="Times,serif" font-size="14.00">local[b] &lt;&#45; r20:04</text>
<text text-anchor="middle" x="122.75" y="-342.45" font-family="Times,serif" font-size="14.00">br</text>
</g>
<!-- n4&#45;&gt;n6 -->
<g id="edge4" class="edge">
<title>n4&#45;&gt;n6</title>
<path fill="none" stroke="black" d="M78.01,-485.76C77.95,-466.03 79.68,-435.34 89.25,-410.75 90.32,-408.01 91.59,-405.28 93.01,-402.6"/>
<polygon fill="black" stroke="black" points="96.52,-404.56 98.68,-394.19 90.52,-400.95 96.52,-404.56"/>
<text text-anchor="middle" x="102.5" y="-434.45" font-family="Times,serif" font-size="14.00">false</text>
</g>
<!-- n7 -->
<g id="node8" class="node">
<title>n7</title>
<polygon fill="none" stroke="black" points="113.5,-317.25 0,-317.25 0,-203.75 113.5,-203.75 113.5,-317.25"/>
<polyline fill="none" stroke="black" points="12,-317.25 0,-305.25"/>
<polyline fill="none" stroke="black" points="0,-215.75 12,-203.75"/>
<polyline fill="none" stroke="black" points="101.5,-203.75 113.5,-215.75"/>
<polyline fill="none" stroke="black" points="113.5,-305.25 101.5,-317.25"/>
<text text-anchor="middle" x="56.75" y="-280.2" font-family="Times,serif" font-size="14.00">r18:04 &lt;&#45; 3</text>
<text text-anchor="middle" x="56.75" y="-263.7" font-family="Times,serif" font-size="14.00">local[a] &lt;&#45; r18:04</text>
<text text-anchor="middle" x="56.75" y="-247.2" font-family="Times,serif" font-size="14.00">r19:04 &lt;&#45; local[b]</text>
<text text-anchor="middle" x="56.75" y="-230.7" font-family="Times,serif" font-size="14.00">return r19:04</text>
</g>
<!-- n4&#45;&gt;n7 -->
<g id="edge6" class="edge">
<title>n4&#45;&gt;n7</title>
<path fill="none" stroke="black" d="M62.38,-485.84C58.84,-480.45 55.61,-474.39 53.75,-468.25 40.05,-422.99 41.24,-369.57 45.63,-328.36"/>
<polygon fill="black" stroke="black" points="49.2,-328.96 46.87,-318.63 42.24,-328.16 49.2,-328.96"/>
<text text-anchor="middle" x="64.25" y="-434.45" font-family="Times,serif" font-size="14.00">true</text>
</g>
<!-- n1 -->
<g id="node7" class="node">
<title>n1</title>
<polygon fill="none" stroke="black" points="251.12,-185.75 138.38,-185.75 138.38,-73 251.12,-73 251.12,-185.75"/>
<polyline fill="none" stroke="black" points="150.38,-185.75 138.38,-173.75"/>
<polyline fill="none" stroke="black" points="138.38,-85 150.38,-73"/>
<polyline fill="none" stroke="black" points="239.12,-73 251.12,-85"/>
<polyline fill="none" stroke="black" points="251.12,-173.75 239.12,-185.75"/>
<text text-anchor="middle" x="194.75" y="-132.57" font-family="Times,serif" font-size="14.00">r21:04 &lt;&#45; local[a]</text>
<text text-anchor="middle" x="194.75" y="-116.08" font-family="Times,serif" font-size="14.00">return r21:04</text>
</g>
<!-- n6&#45;&gt;n1 -->
<g id="edge3" class="edge">
<title>n6&#45;&gt;n1</title>
<path fill="none" stroke="black" d="M131.43,-334.94C141.98,-300.86 160.12,-242.25 174.29,-196.48"/>
<polygon fill="black" stroke="black" points="177.91,-197.63 177.52,-187.04 171.22,-195.56 177.91,-197.63"/>
</g>
<!-- n1&#45;&gt;return -->
<g id="edge2" class="edge">
<title>n1&#45;&gt;return</title>
<path fill="none" stroke="black" d="M148.96,-72.73C140.84,-62.86 132.75,-53.03 125.76,-44.53"/>
<polygon fill="black" stroke="black" points="127.96,-42.7 118.91,-37.2 122.56,-47.15 127.96,-42.7"/>
</g>
<!-- n7&#45;&gt;return -->
<g id="edge5" class="edge">
<title>n7&#45;&gt;return</title>
<path fill="none" stroke="black" d="M67.94,-203.42C77.75,-154.27 91.59,-84.91 99.2,-46.79"/>
<polygon fill="black" stroke="black" points="102.74,-47.96 101.26,-37.47 95.87,-46.59 102.74,-47.96"/>
</g>
<!-- n5&#45;&gt;n1 -->
<g id="edge8" class="edge">
<title>n5&#45;&gt;n1</title>
<path fill="none" stroke="black" d="M186.04,-410.55C187.13,-404.7 188.12,-398.54 188.75,-392.75 195.97,-326.47 196.9,-250.22 196.37,-197.07"/>
<polygon fill="black" stroke="black" points="199.85,-197.05 196.23,-187.09 192.86,-197.13 199.85,-197.05"/>
</g>
<!-- n3&#45;&gt;n1 -->
<g id="edge11" class="edge">
<title>n3&#45;&gt;n1</title>
<path fill="none" stroke="black" d="M253.85,-544.76C245.83,-465.69 230.14,-323.95 209.75,-203.75 209.35,-201.41 208.94,-199.02 208.5,-196.62"/>
<polygon fill="black" stroke="black" points="211.8,-196.18 206.53,-186.99 204.91,-197.46 211.8,-196.18"/>
</g>
</g>
</svg>
