<?xml version="1.0" encoding="UTF-8" standalone="no"?>
<!DOCTYPE svg PUBLIC "-//W3C//DTD SVG 1.1//EN"
 "http://www.w3.org/Graphics/SVG/1.1/DTD/svg11.dtd">
<!-- Generated by graphviz version 8.0.5 (0)
 -->
<!-- Pages: 1 -->
<svg width="187pt" height="331pt"
 viewBox="0.00 0.00 186.75 330.75" xmlns="http://www.w3.org/2000/svg" xmlns:xlink="http://www.w3.org/1999/xlink">
<g id="graph0" class="graph" transform="scale(1 1) rotate(0) translate(4 326.75)">
<polygon fill="white" stroke="none" points="-4,4 -4,-326.75 182.75,-326.75 182.75,4 -4,4"/>
<!-- entry -->
<g id="node1" class="node">
<title>entry</title>
<polygon fill="none" stroke="black" points="89.38,-322.75 16.75,-304.75 89.37,-286.75 162,-304.75 89.38,-322.75"/>
<polyline fill="none" stroke="black" points="28.4,-307.64 28.4,-301.86"/>
<polyline fill="none" stroke="black" points="77.73,-289.64 101.02,-289.64"/>
<polyline fill="none" stroke="black" points="150.35,-301.86 150.35,-307.64"/>
<polyline fill="none" stroke="black" points="101.02,-319.86 77.73,-319.86"/>
<text text-anchor="middle" x="89.38" y="-299.7" font-family="Times,serif" font-size="14.00">write_num</text>
</g>
<!-- n8 -->
<g id="node3" class="node">
<title>n8</title>
<polygon fill="none" stroke="black" points="178.75,-250.75 0,-250.75 0,-72 178.75,-72 178.75,-250.75"/>
<polyline fill="none" stroke="black" points="12,-250.75 0,-238.75"/>
<polyline fill="none" stroke="black" points="0,-84 12,-72"/>
<polyline fill="none" stroke="black" points="166.75,-72 178.75,-84"/>
<polyline fill="none" stroke="black" points="178.75,-238.75 166.75,-250.75"/>
<text text-anchor="middle" x="89.38" y="-205.82" font-family="Times,serif" font-size="14.00">r22:04 &lt;&#45; a00:04</text>
<text text-anchor="middle" x="89.38" y="-189.32" font-family="Times,serif" font-size="14.00">local[value] &lt;&#45; r22:04</text>
<text text-anchor="middle" x="89.38" y="-172.82" font-family="Times,serif" font-size="14.00">r23:08 &lt;&#45; intrinsic:write_num</text>
<text text-anchor="middle" x="89.38" y="-156.32" font-family="Times,serif" font-size="14.00">r24:04 &lt;&#45; local[value]</text>
<text text-anchor="middle" x="89.38" y="-139.82" font-family="Times,serif" font-size="14.00">p00:04 &lt;&#45; r24:04</text>
<text text-anchor="middle" x="89.38" y="-123.33" font-family="Times,serif" font-size="14.00">r25:00 &lt;&#45; r23:08(1)</text>
<text text-anchor="middle" x="89.38" y="-106.83" font-family="Times,serif" font-size="14.00">return r25:00</text>
</g>
<!-- entry&#45;&gt;n8 -->
<g id="edge1" class="edge">
<title>entry&#45;&gt;n8</title>
<path fill="none" stroke="black" d="M89.38,-286.41C89.38,-279.56 89.38,-271.1 89.38,-261.85"/>
<polygon fill="black" stroke="black" points="92.88,-262.11 89.38,-252.11 85.88,-262.11 92.88,-262.11"/>
</g>
<!-- return -->
<g id="node2" class="node">
<title>return</title>
<polygon fill="none" stroke="black" points="125.01,-10.54 125.01,-25.46 104.14,-36 74.61,-36 53.74,-25.46 53.74,-10.54 74.61,0 104.14,0 125.01,-10.54"/>
<text text-anchor="middle" x="89.38" y="-12.95" font-family="Times,serif" font-size="14.00">return</text>
</g>
<!-- n8&#45;&gt;return -->
<g id="edge2" class="edge">
<title>n8&#45;&gt;return</title>
<path fill="none" stroke="black" d="M89.38,-71.64C89.38,-62.76 89.38,-54.28 89.38,-46.83"/>
<polygon fill="black" stroke="black" points="92.88,-47.04 89.38,-37.04 85.88,-47.04 92.88,-47.04"/>
</g>
</g>
</svg>
