<?xml version="1.0" encoding="UTF-8" standalone="no"?>
<!DOCTYPE svg PUBLIC "-//W3C//DTD SVG 1.1//EN"
 "http://www.w3.org/Graphics/SVG/1.1/DTD/svg11.dtd">
<!-- Generated by graphviz version 8.0.5 (0)
 -->
<!-- Pages: 1 -->
<svg width="153pt" height="204pt"
 viewBox="0.00 0.00 153.24 203.50" xmlns="http://www.w3.org/2000/svg" xmlns:xlink="http://www.w3.org/1999/xlink">
<g id="graph0" class="graph" transform="scale(1 1) rotate(0) translate(4 199.5)">
<polygon fill="white" stroke="none" points="-4,4 -4,-199.5 149.24,-199.5 149.24,4 -4,4"/>
<!-- entry -->
<g id="node1" class="node">
<title>entry</title>
<polygon fill="none" stroke="black" points="72.62,-195.5 0,-177.5 72.62,-159.5 145.24,-177.5 72.62,-195.5"/>
<polyline fill="none" stroke="black" points="11.65,-180.39 11.65,-174.61"/>
<polyline fill="none" stroke="black" points="60.97,-162.39 84.27,-162.39"/>
<polyline fill="none" stroke="black" points="133.6,-174.61 133.6,-180.39"/>
<polyline fill="none" stroke="black" points="84.27,-192.61 60.97,-192.61"/>
<text text-anchor="middle" x="72.62" y="-172.45" font-family="Times,serif" font-size="14.00">write_num</text>
</g>
<!-- n1 -->
<g id="node2" class="node">
<title>n1</title>
<polygon fill="none" stroke="black" points="138,-123.5 7.25,-123.5 7.25,0 138,0 138,-123.5"/>
<text text-anchor="middle" x="72.62" y="-106.2" font-family="Times,serif" font-size="14.00">r08:04 &lt;&#45; a00:04</text>
<text text-anchor="middle" x="72.62" y="-89.7" font-family="Times,serif" font-size="14.00">&#39;value&#39; &lt;&#45; r08:04</text>
<text text-anchor="middle" x="72.62" y="-73.2" font-family="Times,serif" font-size="14.00">r09:08 &lt;&#45; write_num</text>
<text text-anchor="middle" x="72.62" y="-56.7" font-family="Times,serif" font-size="14.00">r10:04 &lt;&#45; &#39;value&#39;</text>
<text text-anchor="middle" x="72.62" y="-40.2" font-family="Times,serif" font-size="14.00">p00:04 &lt;&#45; r10:04</text>
<text text-anchor="middle" x="72.62" y="-23.7" font-family="Times,serif" font-size="14.00">r11:00 &lt;&#45; r09:08(1)</text>
<text text-anchor="middle" x="72.62" y="-7.2" font-family="Times,serif" font-size="14.00">return r11:00</text>
</g>
<!-- entry&#45;&gt;n1 -->
<g id="edge1" class="edge">
<title>entry&#45;&gt;n1</title>
<path fill="none" stroke="black" d="M72.62,-159.22C72.62,-152.26 72.62,-143.71 72.62,-134.62"/>
<polygon fill="black" stroke="black" points="76.12,-134.75 72.62,-124.75 69.12,-134.75 76.12,-134.75"/>
</g>
</g>
</svg>
